<mxfile host="app.diagrams.net" modified="2023-05-25T15:54:56.463Z" agent="Mozilla/5.0 (Windows NT 10.0; Win64; x64) AppleWebKit/537.36 (KHTML, like Gecko) Chrome/113.0.0.0 Safari/537.36" etag="UIM1lHXba-aY60Qx5zsr" version="21.3.4" type="device">
  <diagram name="Seite-1" id="HqBW4fTeCPGUdDQ781vC">
    <mxGraphModel dx="1235" dy="669" grid="1" gridSize="10" guides="1" tooltips="1" connect="1" arrows="1" fold="1" page="1" pageScale="1" pageWidth="1169" pageHeight="1654" math="0" shadow="0">
      <root>
        <mxCell id="0" />
        <mxCell id="1" parent="0" />
        <mxCell id="SHAmAD_ecb-zwq3bcNpp-32" value="Example C: Modelling tool" style="rounded=0;whiteSpace=wrap;html=1;strokeColor=none;fillColor=#BFBFBF;fontStyle=1;align=left;fontSize=16;" parent="1" vertex="1">
          <mxGeometry x="50" y="40" width="930" height="30" as="geometry" />
        </mxCell>
        <mxCell id="SHAmAD_ecb-zwq3bcNpp-67" style="edgeStyle=orthogonalEdgeStyle;shape=connector;rounded=0;orthogonalLoop=1;jettySize=auto;html=1;labelBackgroundColor=default;strokeColor=default;fontFamily=Helvetica;fontSize=11;fontColor=default;endArrow=classic;" parent="1" source="SHAmAD_ecb-zwq3bcNpp-35" target="SHAmAD_ecb-zwq3bcNpp-65" edge="1">
          <mxGeometry relative="1" as="geometry" />
        </mxCell>
        <mxCell id="SHAmAD_ecb-zwq3bcNpp-81" style="edgeStyle=orthogonalEdgeStyle;shape=connector;rounded=0;orthogonalLoop=1;jettySize=auto;html=1;entryX=0;entryY=0.5;entryDx=0;entryDy=0;entryPerimeter=0;labelBackgroundColor=default;strokeColor=default;fontFamily=Helvetica;fontSize=11;fontColor=default;endArrow=classic;" parent="1" source="SHAmAD_ecb-zwq3bcNpp-35" target="SHAmAD_ecb-zwq3bcNpp-79" edge="1">
          <mxGeometry relative="1" as="geometry" />
        </mxCell>
        <mxCell id="SHAmAD_ecb-zwq3bcNpp-35" value="VaultModelling Tool" style="rounded=1;whiteSpace=wrap;html=1;" parent="1" vertex="1">
          <mxGeometry x="70" y="90" width="160" height="40" as="geometry" />
        </mxCell>
        <mxCell id="SHAmAD_ecb-zwq3bcNpp-39" style="edgeStyle=orthogonalEdgeStyle;shape=connector;rounded=0;orthogonalLoop=1;jettySize=auto;html=1;labelBackgroundColor=default;strokeColor=default;fontFamily=Helvetica;fontSize=11;fontColor=default;endArrow=classic;" parent="1" source="SHAmAD_ecb-zwq3bcNpp-41" target="SHAmAD_ecb-zwq3bcNpp-52" edge="1">
          <mxGeometry relative="1" as="geometry" />
        </mxCell>
        <mxCell id="SHAmAD_ecb-zwq3bcNpp-41" value="DVPD" style="shape=note;whiteSpace=wrap;html=1;backgroundOutline=1;darkOpacity=0.05;fillColor=#F3AC0C;gradientColor=none;" parent="1" vertex="1">
          <mxGeometry x="240" y="378" width="590" height="40" as="geometry" />
        </mxCell>
        <mxCell id="SHAmAD_ecb-zwq3bcNpp-72" style="edgeStyle=orthogonalEdgeStyle;shape=connector;rounded=0;orthogonalLoop=1;jettySize=auto;html=1;entryX=0;entryY=0.5;entryDx=0;entryDy=0;entryPerimeter=0;labelBackgroundColor=default;strokeColor=default;fontFamily=Helvetica;fontSize=11;fontColor=default;endArrow=classic;" parent="1" source="SHAmAD_ecb-zwq3bcNpp-43" target="SHAmAD_ecb-zwq3bcNpp-41" edge="1">
          <mxGeometry relative="1" as="geometry">
            <Array as="points">
              <mxPoint x="150" y="398" />
            </Array>
          </mxGeometry>
        </mxCell>
        <mxCell id="SHAmAD_ecb-zwq3bcNpp-43" value="Conversion and enhancment tool (Glue code)" style="rounded=1;whiteSpace=wrap;html=1;" parent="1" vertex="1">
          <mxGeometry x="80" y="200" width="140" height="40" as="geometry" />
        </mxCell>
        <mxCell id="SHAmAD_ecb-zwq3bcNpp-70" style="edgeStyle=orthogonalEdgeStyle;shape=connector;rounded=0;orthogonalLoop=1;jettySize=auto;html=1;entryX=1;entryY=0.5;entryDx=0;entryDy=0;labelBackgroundColor=default;strokeColor=default;fontFamily=Helvetica;fontSize=11;fontColor=default;endArrow=classic;" parent="1" source="SHAmAD_ecb-zwq3bcNpp-45" target="SHAmAD_ecb-zwq3bcNpp-43" edge="1">
          <mxGeometry relative="1" as="geometry" />
        </mxCell>
        <mxCell id="SHAmAD_ecb-zwq3bcNpp-45" value="Pipeline properties&lt;br&gt;Excel Sheet" style="shape=note;whiteSpace=wrap;html=1;backgroundOutline=1;darkOpacity=0.05;size=15;" parent="1" vertex="1">
          <mxGeometry x="280" y="185" width="160" height="30" as="geometry" />
        </mxCell>
        <mxCell id="SHAmAD_ecb-zwq3bcNpp-46" value="inkrement &amp;amp; deletion propterties" style="rounded=0;whiteSpace=wrap;html=1;fillColor=#F3AC0C;gradientColor=none;fontSize=10;" parent="1" vertex="1">
          <mxGeometry x="160" y="255.5" width="120" height="30" as="geometry" />
        </mxCell>
        <mxCell id="SHAmAD_ecb-zwq3bcNpp-47" value="fields&amp;amp;types" style="rounded=0;whiteSpace=wrap;html=1;fillColor=#F3AC0C;gradientColor=none;fontSize=10;" parent="1" vertex="1">
          <mxGeometry x="40" y="275.5" width="120" height="30" as="geometry" />
        </mxCell>
        <mxCell id="SHAmAD_ecb-zwq3bcNpp-48" value="Mapping of fields to model" style="rounded=0;whiteSpace=wrap;html=1;fillColor=#F3AC0C;gradientColor=none;fontSize=10;" parent="1" vertex="1">
          <mxGeometry x="160" y="310.5" width="120" height="25" as="geometry" />
        </mxCell>
        <mxCell id="SHAmAD_ecb-zwq3bcNpp-49" value="Data Vault&amp;nbsp;Tables &amp;amp; Relations" style="rounded=0;whiteSpace=wrap;html=1;fillColor=#F3AC0C;gradientColor=none;fontSize=10;" parent="1" vertex="1">
          <mxGeometry x="160" y="285.5" width="120" height="25" as="geometry" />
        </mxCell>
        <mxCell id="SHAmAD_ecb-zwq3bcNpp-50" value="Fetch properties of fields" style="rounded=0;whiteSpace=wrap;html=1;fillColor=#F3AC0C;gradientColor=none;fontSize=10;" parent="1" vertex="1">
          <mxGeometry x="40" y="305.5" width="120" height="30" as="geometry" />
        </mxCell>
        <mxCell id="SHAmAD_ecb-zwq3bcNpp-51" style="edgeStyle=orthogonalEdgeStyle;shape=connector;rounded=0;orthogonalLoop=1;jettySize=auto;html=1;entryX=0.5;entryY=1;entryDx=0;entryDy=0;entryPerimeter=0;labelBackgroundColor=default;strokeColor=default;fontFamily=Helvetica;fontSize=11;fontColor=default;endArrow=classic;" parent="1" source="SHAmAD_ecb-zwq3bcNpp-52" target="SHAmAD_ecb-zwq3bcNpp-54" edge="1">
          <mxGeometry relative="1" as="geometry" />
        </mxCell>
        <mxCell id="SHAmAD_ecb-zwq3bcNpp-52" value="DVPD Compiler" style="rounded=1;whiteSpace=wrap;html=1;" parent="1" vertex="1">
          <mxGeometry x="875" y="368" width="105" height="60" as="geometry" />
        </mxCell>
        <mxCell id="SHAmAD_ecb-zwq3bcNpp-53" style="shape=connector;rounded=0;orthogonalLoop=1;jettySize=auto;html=1;labelBackgroundColor=default;strokeColor=default;fontFamily=Helvetica;fontSize=11;fontColor=default;endArrow=open;dashed=1;endFill=0;" parent="1" source="SHAmAD_ecb-zwq3bcNpp-54" edge="1">
          <mxGeometry relative="1" as="geometry">
            <mxPoint x="540" y="120" as="targetPoint" />
          </mxGeometry>
        </mxCell>
        <mxCell id="SHAmAD_ecb-zwq3bcNpp-54" value="Errors and Warnings" style="shape=note;whiteSpace=wrap;html=1;backgroundOutline=1;darkOpacity=0.05;size=15;" parent="1" vertex="1">
          <mxGeometry x="847.5" y="235.5" width="160" height="20" as="geometry" />
        </mxCell>
        <mxCell id="SHAmAD_ecb-zwq3bcNpp-73" style="edgeStyle=orthogonalEdgeStyle;shape=connector;curved=1;rounded=1;orthogonalLoop=1;jettySize=auto;html=1;entryX=0.5;entryY=0;entryDx=0;entryDy=0;entryPerimeter=0;labelBackgroundColor=default;strokeColor=default;fontFamily=Helvetica;fontSize=11;fontColor=default;endArrow=none;endFill=0;" parent="1" source="SHAmAD_ecb-zwq3bcNpp-58" target="SHAmAD_ecb-zwq3bcNpp-45" edge="1">
          <mxGeometry relative="1" as="geometry" />
        </mxCell>
        <mxCell id="SHAmAD_ecb-zwq3bcNpp-74" style="edgeStyle=orthogonalEdgeStyle;shape=connector;curved=1;rounded=1;orthogonalLoop=1;jettySize=auto;html=1;entryX=1;entryY=0.5;entryDx=0;entryDy=0;labelBackgroundColor=default;strokeColor=default;fontFamily=Helvetica;fontSize=11;fontColor=default;endArrow=none;endFill=0;" parent="1" source="SHAmAD_ecb-zwq3bcNpp-58" target="SHAmAD_ecb-zwq3bcNpp-35" edge="1">
          <mxGeometry relative="1" as="geometry" />
        </mxCell>
        <mxCell id="SHAmAD_ecb-zwq3bcNpp-58" value="DWH Developer" style="shape=umlActor;verticalLabelPosition=bottom;verticalAlign=top;html=1;outlineConnect=0;fontFamily=Helvetica;fontSize=11;fontColor=default;" parent="1" vertex="1">
          <mxGeometry x="500" y="80" width="30" height="60" as="geometry" />
        </mxCell>
        <mxCell id="SHAmAD_ecb-zwq3bcNpp-71" style="edgeStyle=orthogonalEdgeStyle;shape=connector;rounded=0;orthogonalLoop=1;jettySize=auto;html=1;labelBackgroundColor=default;strokeColor=default;fontFamily=Helvetica;fontSize=11;fontColor=default;endArrow=classic;" parent="1" source="SHAmAD_ecb-zwq3bcNpp-65" target="SHAmAD_ecb-zwq3bcNpp-43" edge="1">
          <mxGeometry relative="1" as="geometry" />
        </mxCell>
        <mxCell id="SHAmAD_ecb-zwq3bcNpp-65" value="Tool metadata export" style="shape=note;whiteSpace=wrap;html=1;backgroundOutline=1;darkOpacity=0.05;size=15;" parent="1" vertex="1">
          <mxGeometry x="70" y="170" width="160" height="20" as="geometry" />
        </mxCell>
        <mxCell id="SHAmAD_ecb-zwq3bcNpp-37" value="Basic pipeline properties" style="rounded=0;whiteSpace=wrap;html=1;fillColor=#F3AC0C;gradientColor=none;fontSize=10;" parent="1" vertex="1">
          <mxGeometry x="40" y="255.5" width="120" height="20" as="geometry" />
        </mxCell>
        <mxCell id="SHAmAD_ecb-zwq3bcNpp-79" value="Model Documentation" style="shape=note;whiteSpace=wrap;html=1;backgroundOutline=1;darkOpacity=0.05;size=15;" parent="1" vertex="1">
          <mxGeometry x="200" y="140" width="160" height="20" as="geometry" />
        </mxCell>
        <mxCell id="SHAmAD_ecb-zwq3bcNpp-84" value="Data Vault Model&lt;br style=&quot;font-size: 10px;&quot;&gt;Column properties" style="rounded=0;whiteSpace=wrap;html=1;fillColor=#F3AC0C;gradientColor=none;fontSize=10;" parent="1" vertex="1">
          <mxGeometry x="160" y="335.5" width="120" height="30" as="geometry" />
        </mxCell>
      </root>
    </mxGraphModel>
  </diagram>
</mxfile>
